<svg width="123" height="22" viewBox="0 0 123 22" fill="none" xmlns="http://www.w3.org/2000/svg">
<path d="M3.852 0.532V21H0.268V0.532H3.852ZM8.388 12.292H2.76V9.268H8.192C9.18133 9.268 9.93733 9.02533 10.46 8.54C10.9827 8.036 11.244 7.32667 11.244 6.412C11.244 5.53467 10.9733 4.86267 10.432 4.396C9.89067 3.92933 9.10667 3.696 8.08 3.696H2.648V0.532H8.388C10.4227 0.532 12.0187 1.02667 13.176 2.016C14.3333 3.00533 14.912 4.35867 14.912 6.076C14.912 7.308 14.6133 8.344 14.016 9.184C13.4187 10.0053 12.532 10.6027 11.356 10.976V10.584C12.6253 10.8827 13.5867 11.4427 14.24 12.264C14.8933 13.0853 15.22 14.1493 15.22 15.456C15.22 16.6133 14.9587 17.612 14.436 18.452C13.9133 19.2733 13.148 19.908 12.14 20.356C11.1507 20.7853 9.956 21 8.556 21H2.648V17.836H8.388C9.41467 17.836 10.1987 17.5933 10.74 17.108C11.2813 16.6227 11.552 15.9227 11.552 15.008C11.552 14.1493 11.272 13.4867 10.712 13.02C10.1707 12.5347 9.396 12.292 8.388 12.292ZM18.0023 21V7.168H21.4183V21H18.0023ZM19.6823 4.396C19.1036 4.396 18.6089 4.2 18.1983 3.808C17.8063 3.39733 17.6103 2.90267 17.6103 2.324C17.6103 1.74533 17.8063 1.26 18.1983 0.867999C18.6089 0.475999 19.1036 0.28 19.6823 0.28C20.2609 0.28 20.7463 0.475999 21.1383 0.867999C21.5489 1.26 21.7543 1.74533 21.7543 2.324C21.7543 2.90267 21.5489 3.39733 21.1383 3.808C20.7463 4.2 20.2609 4.396 19.6823 4.396ZM33.6276 7.112V10.276H32.3676C31.1169 10.276 30.1369 10.612 29.4276 11.284C28.7183 11.9373 28.3636 12.936 28.3636 14.28V21H24.9476V7.196H28.1676L28.4476 10.052H28.1116C28.2983 9.13733 28.7369 8.39067 29.4276 7.812C30.1183 7.23333 31.0143 6.944 32.1156 6.944C32.3583 6.944 32.6009 6.95333 32.8436 6.972C33.0863 6.99067 33.3476 7.03733 33.6276 7.112ZM41.1589 21.364C39.8149 21.364 38.6576 21.0653 37.6869 20.468C36.7349 19.852 35.9883 19.0027 35.4469 17.92C34.9243 16.8373 34.6629 15.5773 34.6629 14.14C34.6629 12.7027 34.9243 11.4333 35.4469 10.332C35.9883 9.212 36.7629 8.33467 37.7709 7.7C38.7789 7.06533 39.9736 6.748 41.3549 6.748C42.3256 6.748 43.2123 6.944 44.0149 7.336C44.8176 7.70933 45.4336 8.24133 45.8629 8.932V0.168H49.2509V21H46.1149L45.8909 18.844C45.4803 19.628 44.8456 20.244 43.9869 20.692C43.1469 21.14 42.2043 21.364 41.1589 21.364ZM41.9149 18.228C42.7176 18.228 43.4083 18.06 43.9869 17.724C44.5656 17.3693 45.0136 16.8747 45.3309 16.24C45.6669 15.5867 45.8349 14.8493 45.8349 14.028C45.8349 13.188 45.6669 12.46 45.3309 11.844C45.0136 11.2093 44.5656 10.7147 43.9869 10.36C43.4083 9.98667 42.7176 9.8 41.9149 9.8C41.1309 9.8 40.4496 9.98667 39.8709 10.36C39.2923 10.7147 38.8443 11.2093 38.5269 11.844C38.2283 12.4787 38.0789 13.2067 38.0789 14.028C38.0789 14.8493 38.2283 15.5773 38.5269 16.212C38.8443 16.8467 39.2923 17.3413 39.8709 17.696C40.4496 18.0507 41.1309 18.228 41.9149 18.228ZM66.6018 21L58.8738 0.532H62.6818L67.1618 12.32C67.3858 12.9173 67.6004 13.5427 67.8058 14.196C68.0111 14.8493 68.2258 15.5867 68.4498 16.408C68.6924 15.512 68.9258 14.7373 69.1498 14.084C69.3738 13.4307 69.5791 12.8427 69.7658 12.32L74.1898 0.532H77.9138L70.2978 21H66.6018ZM79.9632 21V7.168H83.3792V21H79.9632ZM81.6432 4.396C81.0646 4.396 80.5699 4.2 80.1592 3.808C79.7672 3.39733 79.5712 2.90267 79.5712 2.324C79.5712 1.74533 79.7672 1.26 80.1592 0.867999C80.5699 0.475999 81.0646 0.28 81.6432 0.28C82.2219 0.28 82.7072 0.475999 83.0992 0.867999C83.5099 1.26 83.7152 1.74533 83.7152 2.324C83.7152 2.90267 83.5099 3.39733 83.0992 3.808C82.7072 4.2 82.2219 4.396 81.6432 4.396ZM93.0965 21.364C91.7339 21.364 90.5205 21.056 89.4565 20.44C88.4112 19.8053 87.5899 18.9467 86.9925 17.864C86.3952 16.7627 86.0965 15.5027 86.0965 14.084C86.0965 12.6467 86.3859 11.3773 86.9645 10.276C87.5432 9.17467 88.3552 8.316 89.4005 7.7C90.4459 7.06533 91.6405 6.748 92.9845 6.748C94.3845 6.748 95.5885 7.04667 96.5965 7.644C97.6045 8.22267 98.3792 9.03467 98.9205 10.08C99.4805 11.1253 99.7605 12.376 99.7605 13.832V14.868L87.8885 14.896L87.9445 12.712H96.3725C96.3725 11.76 96.0645 10.9947 95.4485 10.416C94.8512 9.83733 94.0392 9.548 93.0125 9.548C92.2099 9.548 91.5285 9.716 90.9685 10.052C90.4272 10.388 90.0165 10.892 89.7365 11.564C89.4565 12.236 89.3165 13.0573 89.3165 14.028C89.3165 15.5213 89.6339 16.6507 90.2685 17.416C90.9219 18.1813 91.8832 18.564 93.1525 18.564C94.0859 18.564 94.8512 18.3867 95.4485 18.032C96.0645 17.6773 96.4659 17.1733 96.6525 16.52H99.8165C99.5179 18.032 98.7712 19.2173 97.5765 20.076C96.4005 20.9347 94.9072 21.364 93.0965 21.364ZM104.972 21L100.492 7.168H104.048L105.868 13.104C106.018 13.6453 106.167 14.2147 106.316 14.812C106.466 15.4093 106.596 16.0347 106.708 16.688C106.802 16.24 106.886 15.8293 106.96 15.456C107.054 15.0827 107.156 14.7187 107.268 14.364C107.38 13.9907 107.511 13.5707 107.66 13.104L109.564 7.168H113.036L114.884 13.104C114.922 13.2347 114.978 13.4587 115.052 13.776C115.146 14.0747 115.239 14.4013 115.332 14.756C115.426 15.1107 115.51 15.4653 115.584 15.82C115.678 16.156 115.743 16.4453 115.78 16.688C115.855 16.3333 115.948 15.932 116.06 15.484C116.172 15.036 116.284 14.6067 116.396 14.196C116.527 13.7667 116.63 13.4027 116.704 13.104L118.552 7.168H122.164L117.376 21H114.184L112.28 15.008C112 14.0933 111.776 13.3187 111.608 12.684C111.44 12.0307 111.328 11.5267 111.272 11.172C111.216 11.508 111.114 11.956 110.964 12.516C110.815 13.076 110.563 13.9253 110.208 15.064L108.304 21H104.972Z" fill="#03557F"/>
</svg>
